<svg width="465" height="465" viewBox="0 0 465 465" fill="none" xmlns="http://www.w3.org/2000/svg">
<path d="M420.631 168.756C444.85 144.537 433.806 116.25 420.631 102.494L362.506 44.3687C338.094 20.15 310 31.1937 296.244 44.3687L263.306 77.5H213.125C176.313 77.5 155 96.875 144.15 119.156L58.125 205.181V282.681L44.3687 296.244C20.15 320.656 31.1937 348.75 44.3687 362.506L102.494 420.631C112.956 431.094 124.194 434.969 134.85 434.969C148.606 434.969 161.2 428.187 168.756 420.631L221.069 368.125H290.625C323.563 368.125 340.225 347.587 346.231 327.437C368.125 321.625 380.138 304.962 384.981 288.687C415.013 280.937 426.25 252.456 426.25 232.5V174.375H414.819L420.631 168.756ZM387.5 232.5C387.5 241.219 383.819 251.875 368.125 251.875H348.75V271.25C348.75 279.969 345.069 290.625 329.375 290.625H310V310C310 318.719 306.319 329.375 290.625 329.375H205.181L141.631 392.925C135.625 398.544 132.138 395.25 130.006 393.119L72.075 335.381C66.4563 329.375 69.75 325.887 71.8813 323.756L96.875 298.569V221.069L135.625 182.319V213.125C135.625 236.569 151.125 271.25 193.75 271.25C236.375 271.25 251.875 236.569 251.875 213.125H387.5V232.5ZM393.119 141.244L360.181 174.375H213.125V213.125C213.125 221.844 209.444 232.5 193.75 232.5C178.056 232.5 174.375 221.844 174.375 213.125V155C174.375 146.087 177.669 116.25 213.125 116.25H279.194L323.369 72.075C329.375 66.4562 332.863 69.75 334.994 71.8812L392.925 129.619C398.544 135.625 395.25 139.112 393.119 141.244Z" fill="white"/>
</svg>
