<svg width="208" height="208" viewBox="0 0 208 208" fill="none" xmlns="http://www.w3.org/2000/svg">
<path opacity="0.2" d="M40.9748 83.4212C41.0924 83.8181 40.9533 84.2464 40.6251 84.4985L9.67243 108.266C9.03486 108.756 8.11228 108.331 8.08333 107.528C8.04111 106.357 8.02 105.183 8.02 104C7.98205 82.7247 15.0407 62.0635 28.0487 45.2738C28.5422 44.6368 29.542 44.8332 29.771 45.6058L40.9748 83.4212ZM24.7393 155.42C23.9507 155.42 23.4746 156.289 23.9098 156.947C36.6452 176.193 55.8833 190.216 78.1021 196.449C78.8739 196.666 79.5592 195.921 79.2917 195.165L65.4559 156.086C65.3145 155.687 64.9368 155.42 64.5132 155.42H24.7393ZM128.758 195.165C128.491 195.921 129.176 196.666 129.948 196.449C152.167 190.216 171.405 176.193 184.14 156.947C184.575 156.289 184.099 155.42 183.311 155.42H143.537C143.113 155.42 142.736 155.687 142.594 156.086L128.758 195.165ZM179.951 45.2738C179.458 44.6368 178.458 44.8332 178.229 45.6058L167.025 83.4212C166.908 83.8181 167.047 84.2464 167.375 84.4985L198.328 108.266C198.965 108.756 199.888 108.331 199.917 107.528C199.959 106.357 199.98 105.183 199.98 104C200.018 82.7247 192.959 62.0635 179.951 45.2738ZM138.72 16.1319C139.376 15.6808 139.266 14.6831 138.523 14.3978C116.299 5.86731 91.7006 5.86731 69.4775 14.3978C68.734 14.6831 68.6239 15.6808 69.2802 16.1319L103.434 39.6106C103.775 39.8451 104.225 39.8451 104.566 39.6106L138.72 16.1319ZM128.006 136C128.433 136 128.813 135.729 128.952 135.325L143.753 92.2185C143.899 91.7938 143.744 91.324 143.374 91.0696L104.567 64.3895C104.225 64.1549 103.775 64.1549 103.433 64.3895L64.626 91.0696C64.256 91.324 64.1009 91.7938 64.2467 92.2185L79.0481 135.325C79.1869 135.729 79.5668 136 79.9939 136H128.006Z" fill="#4ECB71"/>
<path d="M104 0C83.4307 0 63.3234 6.09949 46.2207 17.5272C29.118 28.9548 15.788 45.1974 7.91653 64.2009C0.0450158 83.2044 -2.01453 104.115 1.99833 124.289C6.0112 144.463 15.9162 162.994 30.4609 177.539C45.0056 192.084 63.5366 201.989 83.7106 206.002C103.885 210.015 124.796 207.955 143.799 200.083C162.803 192.212 179.045 178.882 190.473 161.779C201.901 144.677 208 124.569 208 104C207.971 76.4264 197.004 49.9905 177.507 30.4931C158.009 10.9956 131.574 0.0291182 104 0ZM180.806 146.914C180.63 147.227 180.298 147.42 179.939 147.42H147.41C147.09 147.42 146.789 147.267 146.601 147.007L137.945 135.081C137.754 134.817 137.703 134.477 137.809 134.168L150.108 98.3515C150.21 98.0546 150.445 97.8228 150.744 97.7255L164.769 93.1532C165.083 93.0511 165.426 93.1099 165.688 93.3106L191.067 112.78C191.342 112.991 191.489 113.33 191.451 113.676C190.174 125.358 186.553 136.663 180.806 146.914ZM16.5083 113.12C16.5159 113.12 16.5233 113.117 16.5293 113.113L42.292 93.3211C42.5536 93.1201 42.8975 93.0611 43.2112 93.1634L57.2361 97.7355C57.5345 97.8328 57.7699 98.0646 57.8719 98.3615L70.1713 134.179C70.2771 134.487 70.2263 134.827 70.0353 135.09L61.3994 147.007C61.2113 147.266 60.9102 147.42 60.5897 147.42H28.0609C27.7018 147.42 27.3697 147.227 27.1939 146.914C21.3547 136.514 17.7057 125.026 16.4739 113.158C16.4718 113.138 16.4878 113.12 16.5083 113.12ZM26.47 62.48C26.4997 62.48 26.5258 62.4995 26.5342 62.5279L31.8342 80.4191C31.9521 80.817 31.812 81.2464 31.482 81.4981L18.6125 91.3183C17.9066 91.8569 16.9096 91.278 17.0465 90.4007C18.5679 80.6485 21.7326 71.219 26.411 62.5152C26.4227 62.4935 26.4454 62.48 26.47 62.48ZM85.7138 128C85.2867 128 84.9068 127.729 84.768 127.325L73.7869 95.3686C73.641 94.9439 73.7961 94.474 74.1661 94.2196L103.433 74.0994C103.775 73.8649 104.225 73.8649 104.567 74.0994L133.834 94.2196C134.204 94.474 134.359 94.9439 134.213 95.3686L123.232 127.325C123.093 127.729 122.713 128 122.286 128H85.7138ZM176.615 81.4984C176.287 81.2464 176.148 80.818 176.265 80.4211L180.891 64.807C181.144 63.9511 182.299 63.8354 182.7 64.633C186.775 72.7377 189.563 81.4281 190.962 90.3912C191.099 91.2698 190.099 91.8485 189.394 91.307L176.615 81.4984ZM169.863 45.7C169.866 45.7 169.869 45.7036 169.868 45.7072L160.51 77.2755C160.416 77.5913 160.173 77.8408 159.859 77.9424L145.759 82.5179C145.463 82.6138 145.14 82.5668 144.884 82.3908L112.434 60.088C112.162 59.9015 112 59.5932 112 59.2639V44.736C112 44.4067 112.162 44.0985 112.433 43.912L140.618 24.5343C140.911 24.3334 141.288 24.3019 141.608 24.4542C152.354 29.5648 161.963 36.7894 169.858 45.6981C169.859 45.6993 169.861 45.7 169.863 45.7ZM119.776 17.4216C120.641 17.5789 120.869 18.6958 120.143 19.1942L104.566 29.9007C104.225 30.1352 103.775 30.1352 103.434 29.9007L87.8566 19.1942C87.1315 18.6958 87.3587 17.5789 88.2243 17.4216C98.6559 15.5261 109.344 15.5261 119.776 17.4216ZM66.3922 24.4542C66.7124 24.3019 67.0895 24.3334 67.3817 24.5343L95.5665 43.912C95.8379 44.0985 96 44.4067 96 44.736V59.264C96 59.5933 95.8379 59.9015 95.5665 60.088L63.1262 82.3907C62.8701 82.5668 62.5467 82.6138 62.2511 82.5178L48.1505 77.9424C47.8372 77.8408 47.5941 77.5913 47.5004 77.2755L38.2977 46.2321C38.1996 45.9011 38.2789 45.5426 38.5094 45.2857C46.3346 36.5663 55.8119 29.4857 66.3922 24.4542ZM40.7064 165.076C40.1024 164.449 40.5524 163.42 41.4224 163.42H58.813C59.2367 163.42 59.6145 163.687 59.7558 164.087L65.8912 181.432C66.1874 182.269 65.3298 183.041 64.5367 182.641C55.6627 178.167 47.6061 172.229 40.7064 165.076ZM85.9936 190.13C85.9967 190.13 85.9989 190.127 85.9979 190.124L74.2964 157.206C74.186 156.896 74.2358 156.551 74.4295 156.284L83.0505 144.412C83.2387 144.153 83.5395 144 83.8597 144H124.14C124.461 144 124.761 144.153 124.949 144.412L133.571 156.284C133.764 156.551 133.814 156.895 133.705 157.206L122.238 189.6C122.121 189.929 121.842 190.174 121.5 190.244C109.782 192.621 97.7 192.586 85.9927 190.139C85.9874 190.138 85.9882 190.13 85.9936 190.13ZM141.353 183.69C141.357 183.69 141.361 183.687 141.362 183.684L148.294 164.087C148.436 163.687 148.813 163.42 149.237 163.42H166.626C167.496 163.42 167.946 164.45 167.341 165.076C159.883 172.798 151.077 179.101 141.349 183.672C141.34 183.676 141.343 183.69 141.353 183.69Z" fill="#4ECB71"/>
</svg>
